<svg xmlns="http://www.w3.org/2000/svg" width="24" height="24" viewBox="0 0 24 24">
	<title>bell</title>
	<path d="M11.999 0c-0.83 0-1.5 0.67-1.5 1.5v0.9c-3.422 0.694-6 3.722-6 7.35v0.881c0 2.203-0.811 4.331-2.273 5.981l-0.347 0.389c-0.394 0.441-0.488 1.073-0.248 1.613s0.778 0.886 1.369 0.886h18c0.591 0 1.125-0.347 1.369-0.886s0.145-1.172-0.248-1.613l-0.347-0.389c-1.462-1.65-2.273-3.773-2.273-5.981v-0.881c0-3.628-2.578-6.656-6-7.35v-0.9c0-0.83-0.67-1.5-1.5-1.5zM14.122 23.123c0.563-0.563 0.877-1.327 0.877-2.123h-6c0 0.797 0.314 1.561 0.877 2.123s1.327 0.877 2.123 0.877 1.561-0.314 2.123-0.877z"></path>
</svg>