<svg xmlns="http://www.w3.org/2000/svg" width="24" height="24" viewBox="0 0 24 24">
	<title>phone</title>
	<path d="M7.729 1.154c-0.361-0.872-1.312-1.336-2.222-1.087l-4.125 1.125c-0.816 0.225-1.383 0.966-1.383 1.809 0 11.596 9.403 20.999 20.999 20.999 0.844 0 1.584-0.567 1.809-1.383l1.125-4.125c0.248-0.909-0.216-1.861-1.087-2.222l-4.5-1.875c-0.764-0.319-1.65-0.098-2.17 0.544l-1.894 2.311c-3.3-1.561-5.972-4.233-7.532-7.532l2.311-1.889c0.642-0.525 0.862-1.406 0.544-2.17l-1.875-4.5z"></path>
</svg>