<svg xmlns="http://www.w3.org/2000/svg" width="24" height="24" viewBox="0 0 24 24">
	<title>twitter</title>
	<path d="M21.534 7.113c0.014 0.211 0.014 0.427 0.014 0.637 0 6.502-4.95 13.997-13.997 13.997-2.789 0-5.377-0.806-7.552-2.208 0.394 0.047 0.778 0.061 1.186 0.061 2.302 0 4.416-0.778 6.108-2.1-2.161-0.047-3.975-1.463-4.598-3.413 0.305 0.047 0.609 0.075 0.928 0.075 0.441 0 0.881-0.061 1.294-0.169-2.255-0.455-3.942-2.438-3.942-4.828v-0.061c0.656 0.366 1.416 0.595 2.222 0.623-1.327-0.881-2.194-2.391-2.194-4.097 0-0.914 0.244-1.753 0.67-2.484 2.423 2.986 6.061 4.936 10.144 5.147-0.075-0.366-0.122-0.745-0.122-1.125 0-2.709 2.194-4.917 4.917-4.917 1.416 0 2.695 0.595 3.595 1.552 1.111-0.211 2.18-0.623 3.122-1.186-0.366 1.144-1.144 2.1-2.161 2.709 0.989-0.108 1.95-0.38 2.831-0.759-0.67 0.975-1.509 1.842-2.466 2.545z"></path>
</svg>