<svg xmlns="http://www.w3.org/2000/svg" width="24" height="24" viewBox="0 0 24 24">
	<title>youtube</title>
	<path d="M23.499 6.204c-0.277-1.041-1.090-1.859-2.122-2.135-1.872-0.505-9.377-0.505-9.377-0.505s-7.505 0-9.377 0.505c-1.033 0.277-1.845 1.094-2.122 2.135-0.501 1.885-0.501 5.813-0.501 5.813s0 3.928 0.501 5.813c0.277 1.041 1.090 1.824 2.122 2.1 1.872 0.505 9.377 0.505 9.377 0.505s7.505 0 9.377-0.505c1.033-0.277 1.845-1.063 2.122-2.1 0.501-1.885 0.501-5.813 0.501-5.813s0-3.928-0.501-5.813zM9.548 15.585v-7.136l6.27 3.568-6.27 3.568z"></path>
</svg>